<mxfile host="app.diagrams.net" modified="2023-04-07T12:15:58.460Z" agent="Mozilla/5.0 (Windows NT 10.0; Win64; x64) AppleWebKit/537.36 (KHTML, like Gecko) Chrome/111.0.0.0 Safari/537.36 Edg/111.0.1661.62" etag="Q4lqsfSzQCVYFfpkQtb5" version="21.1.3" type="github">
  <diagram name="Page-1" id="O7FfPtnYejGDInr6tpNi">
    <mxGraphModel dx="983" dy="616" grid="1" gridSize="10" guides="1" tooltips="1" connect="1" arrows="1" fold="1" page="1" pageScale="1" pageWidth="850" pageHeight="1100" math="0" shadow="0">
      <root>
        <mxCell id="0" />
        <mxCell id="1" parent="0" />
        <mxCell id="MlSDF2G6X2Ml6JZiUadf-2" value="B" style="ellipse" vertex="1" parent="1">
          <mxGeometry x="1078" y="140" width="80" height="30" as="geometry" />
        </mxCell>
        <mxCell id="MlSDF2G6X2Ml6JZiUadf-3" value="A" style="rounded=1;" vertex="1" parent="1">
          <mxGeometry x="346" y="220" width="80" height="30" as="geometry" />
        </mxCell>
        <mxCell id="MlSDF2G6X2Ml6JZiUadf-4" value="" style="edgeStyle=elbowEdgeStyle;elbow=vertical;" edge="1" source="MlSDF2G6X2Ml6JZiUadf-2" target="MlSDF2G6X2Ml6JZiUadf-3" parent="1">
          <mxGeometry relative="1" as="geometry" />
        </mxCell>
        <mxCell id="MlSDF2G6X2Ml6JZiUadf-5" value="C" style="rounded=1;" vertex="1" parent="1">
          <mxGeometry x="106" y="300" width="80" height="30" as="geometry" />
        </mxCell>
        <mxCell id="MlSDF2G6X2Ml6JZiUadf-6" value="" style="edgeStyle=elbowEdgeStyle;elbow=vertical;" edge="1" source="MlSDF2G6X2Ml6JZiUadf-3" target="MlSDF2G6X2Ml6JZiUadf-5" parent="1">
          <mxGeometry relative="1" as="geometry" />
        </mxCell>
        <mxCell id="MlSDF2G6X2Ml6JZiUadf-7" value="C" style="rounded=1;" vertex="1" parent="1">
          <mxGeometry x="1066" y="220" width="80" height="30" as="geometry" />
        </mxCell>
        <mxCell id="MlSDF2G6X2Ml6JZiUadf-8" value="" style="edgeStyle=elbowEdgeStyle;elbow=vertical;" edge="1" source="MlSDF2G6X2Ml6JZiUadf-2" target="MlSDF2G6X2Ml6JZiUadf-7" parent="1">
          <mxGeometry relative="1" as="geometry" />
        </mxCell>
        <mxCell id="MlSDF2G6X2Ml6JZiUadf-9" value="D" style="rounded=1;" vertex="1" parent="1">
          <mxGeometry x="1594" y="220" width="80" height="30" as="geometry" />
        </mxCell>
        <mxCell id="MlSDF2G6X2Ml6JZiUadf-10" value="" style="edgeStyle=elbowEdgeStyle;elbow=vertical;" edge="1" source="MlSDF2G6X2Ml6JZiUadf-2" target="MlSDF2G6X2Ml6JZiUadf-9" parent="1">
          <mxGeometry relative="1" as="geometry" />
        </mxCell>
        <mxCell id="MlSDF2G6X2Ml6JZiUadf-11" value="E" style="rounded=1;" vertex="1" parent="1">
          <mxGeometry x="1810" y="220" width="80" height="30" as="geometry" />
        </mxCell>
        <mxCell id="MlSDF2G6X2Ml6JZiUadf-12" value="" style="edgeStyle=elbowEdgeStyle;elbow=vertical;" edge="1" source="MlSDF2G6X2Ml6JZiUadf-2" target="MlSDF2G6X2Ml6JZiUadf-11" parent="1">
          <mxGeometry relative="1" as="geometry" />
        </mxCell>
        <mxCell id="MlSDF2G6X2Ml6JZiUadf-13" value="D" style="rounded=1;" vertex="1" parent="1">
          <mxGeometry x="346" y="300" width="80" height="30" as="geometry" />
        </mxCell>
        <mxCell id="MlSDF2G6X2Ml6JZiUadf-14" value="" style="edgeStyle=elbowEdgeStyle;elbow=vertical;" edge="1" source="MlSDF2G6X2Ml6JZiUadf-3" target="MlSDF2G6X2Ml6JZiUadf-13" parent="1">
          <mxGeometry relative="1" as="geometry" />
        </mxCell>
        <mxCell id="MlSDF2G6X2Ml6JZiUadf-15" value="E" style="rounded=1;" vertex="1" parent="1">
          <mxGeometry x="586" y="300" width="80" height="30" as="geometry" />
        </mxCell>
        <mxCell id="MlSDF2G6X2Ml6JZiUadf-16" value="" style="edgeStyle=elbowEdgeStyle;elbow=vertical;" edge="1" source="MlSDF2G6X2Ml6JZiUadf-3" target="MlSDF2G6X2Ml6JZiUadf-15" parent="1">
          <mxGeometry relative="1" as="geometry" />
        </mxCell>
        <mxCell id="MlSDF2G6X2Ml6JZiUadf-17" value="D" style="rounded=1;" vertex="1" parent="1">
          <mxGeometry x="46" y="380" width="80" height="30" as="geometry" />
        </mxCell>
        <mxCell id="MlSDF2G6X2Ml6JZiUadf-18" value="" style="edgeStyle=elbowEdgeStyle;elbow=vertical;" edge="1" source="MlSDF2G6X2Ml6JZiUadf-5" target="MlSDF2G6X2Ml6JZiUadf-17" parent="1">
          <mxGeometry relative="1" as="geometry" />
        </mxCell>
        <mxCell id="MlSDF2G6X2Ml6JZiUadf-19" value="E" style="rounded=1;" vertex="1" parent="1">
          <mxGeometry x="166" y="380" width="80" height="30" as="geometry" />
        </mxCell>
        <mxCell id="MlSDF2G6X2Ml6JZiUadf-20" value="" style="edgeStyle=elbowEdgeStyle;elbow=vertical;" edge="1" source="MlSDF2G6X2Ml6JZiUadf-5" target="MlSDF2G6X2Ml6JZiUadf-19" parent="1">
          <mxGeometry relative="1" as="geometry" />
        </mxCell>
        <mxCell id="MlSDF2G6X2Ml6JZiUadf-21" value="C" style="rounded=1;" vertex="1" parent="1">
          <mxGeometry x="286" y="380" width="80" height="30" as="geometry" />
        </mxCell>
        <mxCell id="MlSDF2G6X2Ml6JZiUadf-22" value="" style="edgeStyle=elbowEdgeStyle;elbow=vertical;" edge="1" source="MlSDF2G6X2Ml6JZiUadf-13" target="MlSDF2G6X2Ml6JZiUadf-21" parent="1">
          <mxGeometry relative="1" as="geometry" />
        </mxCell>
        <mxCell id="MlSDF2G6X2Ml6JZiUadf-23" value="E" style="rounded=1;" vertex="1" parent="1">
          <mxGeometry x="406" y="380" width="80" height="30" as="geometry" />
        </mxCell>
        <mxCell id="MlSDF2G6X2Ml6JZiUadf-24" value="" style="edgeStyle=elbowEdgeStyle;elbow=vertical;" edge="1" source="MlSDF2G6X2Ml6JZiUadf-13" target="MlSDF2G6X2Ml6JZiUadf-23" parent="1">
          <mxGeometry relative="1" as="geometry" />
        </mxCell>
        <mxCell id="MlSDF2G6X2Ml6JZiUadf-25" value="C" style="rounded=1;" vertex="1" parent="1">
          <mxGeometry x="526" y="380" width="80" height="30" as="geometry" />
        </mxCell>
        <mxCell id="MlSDF2G6X2Ml6JZiUadf-26" value="" style="edgeStyle=elbowEdgeStyle;elbow=vertical;" edge="1" source="MlSDF2G6X2Ml6JZiUadf-15" target="MlSDF2G6X2Ml6JZiUadf-25" parent="1">
          <mxGeometry relative="1" as="geometry" />
        </mxCell>
        <mxCell id="MlSDF2G6X2Ml6JZiUadf-27" value="D" style="rounded=1;" vertex="1" parent="1">
          <mxGeometry x="646" y="380" width="80" height="30" as="geometry" />
        </mxCell>
        <mxCell id="MlSDF2G6X2Ml6JZiUadf-28" value="" style="edgeStyle=elbowEdgeStyle;elbow=vertical;" edge="1" source="MlSDF2G6X2Ml6JZiUadf-15" target="MlSDF2G6X2Ml6JZiUadf-27" parent="1">
          <mxGeometry relative="1" as="geometry" />
        </mxCell>
        <mxCell id="MlSDF2G6X2Ml6JZiUadf-29" value="A" style="rounded=1;" vertex="1" parent="1">
          <mxGeometry x="826" y="300" width="80" height="30" as="geometry" />
        </mxCell>
        <mxCell id="MlSDF2G6X2Ml6JZiUadf-30" value="" style="edgeStyle=elbowEdgeStyle;elbow=vertical;" edge="1" source="MlSDF2G6X2Ml6JZiUadf-7" target="MlSDF2G6X2Ml6JZiUadf-29" parent="1">
          <mxGeometry relative="1" as="geometry" />
        </mxCell>
        <mxCell id="MlSDF2G6X2Ml6JZiUadf-31" value="D" style="rounded=1;" vertex="1" parent="1">
          <mxGeometry x="1066" y="300" width="80" height="30" as="geometry" />
        </mxCell>
        <mxCell id="MlSDF2G6X2Ml6JZiUadf-32" value="" style="edgeStyle=elbowEdgeStyle;elbow=vertical;" edge="1" source="MlSDF2G6X2Ml6JZiUadf-7" target="MlSDF2G6X2Ml6JZiUadf-31" parent="1">
          <mxGeometry relative="1" as="geometry" />
        </mxCell>
        <mxCell id="MlSDF2G6X2Ml6JZiUadf-33" value="E" style="rounded=1;" vertex="1" parent="1">
          <mxGeometry x="1306" y="300" width="80" height="30" as="geometry" />
        </mxCell>
        <mxCell id="MlSDF2G6X2Ml6JZiUadf-34" value="" style="edgeStyle=elbowEdgeStyle;elbow=vertical;" edge="1" source="MlSDF2G6X2Ml6JZiUadf-7" target="MlSDF2G6X2Ml6JZiUadf-33" parent="1">
          <mxGeometry relative="1" as="geometry" />
        </mxCell>
        <mxCell id="MlSDF2G6X2Ml6JZiUadf-35" value="D" style="rounded=1;" vertex="1" parent="1">
          <mxGeometry x="766" y="380" width="80" height="30" as="geometry" />
        </mxCell>
        <mxCell id="MlSDF2G6X2Ml6JZiUadf-36" value="" style="edgeStyle=elbowEdgeStyle;elbow=vertical;" edge="1" source="MlSDF2G6X2Ml6JZiUadf-29" target="MlSDF2G6X2Ml6JZiUadf-35" parent="1">
          <mxGeometry relative="1" as="geometry" />
        </mxCell>
        <mxCell id="MlSDF2G6X2Ml6JZiUadf-37" value="C" style="rounded=1;" vertex="1" parent="1">
          <mxGeometry x="766" y="460" width="80" height="30" as="geometry" />
        </mxCell>
        <mxCell id="MlSDF2G6X2Ml6JZiUadf-38" value="" style="edgeStyle=elbowEdgeStyle;elbow=vertical;" edge="1" source="MlSDF2G6X2Ml6JZiUadf-35" target="MlSDF2G6X2Ml6JZiUadf-37" parent="1">
          <mxGeometry relative="1" as="geometry" />
        </mxCell>
        <mxCell id="MlSDF2G6X2Ml6JZiUadf-39" value="C" style="rounded=1;" vertex="1" parent="1">
          <mxGeometry x="886" y="380" width="80" height="30" as="geometry" />
        </mxCell>
        <mxCell id="MlSDF2G6X2Ml6JZiUadf-40" value="" style="edgeStyle=elbowEdgeStyle;elbow=vertical;" edge="1" source="MlSDF2G6X2Ml6JZiUadf-29" target="MlSDF2G6X2Ml6JZiUadf-39" parent="1">
          <mxGeometry relative="1" as="geometry" />
        </mxCell>
        <mxCell id="MlSDF2G6X2Ml6JZiUadf-41" value="A" style="rounded=1;" vertex="1" parent="1">
          <mxGeometry x="1006" y="380" width="80" height="30" as="geometry" />
        </mxCell>
        <mxCell id="MlSDF2G6X2Ml6JZiUadf-42" value="" style="edgeStyle=elbowEdgeStyle;elbow=vertical;" edge="1" source="MlSDF2G6X2Ml6JZiUadf-31" target="MlSDF2G6X2Ml6JZiUadf-41" parent="1">
          <mxGeometry relative="1" as="geometry" />
        </mxCell>
        <mxCell id="MlSDF2G6X2Ml6JZiUadf-43" value="E" style="rounded=1;" vertex="1" parent="1">
          <mxGeometry x="1126" y="380" width="80" height="30" as="geometry" />
        </mxCell>
        <mxCell id="MlSDF2G6X2Ml6JZiUadf-44" value="" style="edgeStyle=elbowEdgeStyle;elbow=vertical;" edge="1" source="MlSDF2G6X2Ml6JZiUadf-31" target="MlSDF2G6X2Ml6JZiUadf-43" parent="1">
          <mxGeometry relative="1" as="geometry" />
        </mxCell>
        <mxCell id="MlSDF2G6X2Ml6JZiUadf-45" value="A" style="rounded=1;" vertex="1" parent="1">
          <mxGeometry x="1246" y="380" width="80" height="30" as="geometry" />
        </mxCell>
        <mxCell id="MlSDF2G6X2Ml6JZiUadf-46" value="" style="edgeStyle=elbowEdgeStyle;elbow=vertical;" edge="1" source="MlSDF2G6X2Ml6JZiUadf-33" target="MlSDF2G6X2Ml6JZiUadf-45" parent="1">
          <mxGeometry relative="1" as="geometry" />
        </mxCell>
        <mxCell id="MlSDF2G6X2Ml6JZiUadf-47" value="D" style="rounded=1;" vertex="1" parent="1">
          <mxGeometry x="1366" y="380" width="80" height="30" as="geometry" />
        </mxCell>
        <mxCell id="MlSDF2G6X2Ml6JZiUadf-48" value="" style="edgeStyle=elbowEdgeStyle;elbow=vertical;" edge="1" source="MlSDF2G6X2Ml6JZiUadf-33" target="MlSDF2G6X2Ml6JZiUadf-47" parent="1">
          <mxGeometry relative="1" as="geometry" />
        </mxCell>
        <mxCell id="MlSDF2G6X2Ml6JZiUadf-49" value="E" style="rounded=1;" vertex="1" parent="1">
          <mxGeometry x="46" y="460" width="80" height="30" as="geometry" />
        </mxCell>
        <mxCell id="MlSDF2G6X2Ml6JZiUadf-50" value="" style="edgeStyle=elbowEdgeStyle;elbow=vertical;" edge="1" source="MlSDF2G6X2Ml6JZiUadf-17" target="MlSDF2G6X2Ml6JZiUadf-49" parent="1">
          <mxGeometry relative="1" as="geometry" />
        </mxCell>
        <mxCell id="MlSDF2G6X2Ml6JZiUadf-51" value="D" style="rounded=1;" vertex="1" parent="1">
          <mxGeometry x="166" y="460" width="80" height="30" as="geometry" />
        </mxCell>
        <mxCell id="MlSDF2G6X2Ml6JZiUadf-52" value="" style="edgeStyle=elbowEdgeStyle;elbow=vertical;" edge="1" source="MlSDF2G6X2Ml6JZiUadf-19" target="MlSDF2G6X2Ml6JZiUadf-51" parent="1">
          <mxGeometry relative="1" as="geometry" />
        </mxCell>
        <mxCell id="MlSDF2G6X2Ml6JZiUadf-53" value="E" style="rounded=1;" vertex="1" parent="1">
          <mxGeometry x="286" y="460" width="80" height="30" as="geometry" />
        </mxCell>
        <mxCell id="MlSDF2G6X2Ml6JZiUadf-54" value="" style="edgeStyle=elbowEdgeStyle;elbow=vertical;" edge="1" source="MlSDF2G6X2Ml6JZiUadf-21" target="MlSDF2G6X2Ml6JZiUadf-53" parent="1">
          <mxGeometry relative="1" as="geometry" />
        </mxCell>
        <mxCell id="MlSDF2G6X2Ml6JZiUadf-55" value="C" style="rounded=1;" vertex="1" parent="1">
          <mxGeometry x="406" y="460" width="80" height="30" as="geometry" />
        </mxCell>
        <mxCell id="MlSDF2G6X2Ml6JZiUadf-56" value="" style="edgeStyle=elbowEdgeStyle;elbow=vertical;" edge="1" source="MlSDF2G6X2Ml6JZiUadf-23" target="MlSDF2G6X2Ml6JZiUadf-55" parent="1">
          <mxGeometry relative="1" as="geometry" />
        </mxCell>
        <mxCell id="MlSDF2G6X2Ml6JZiUadf-57" value="D" style="rounded=1;" vertex="1" parent="1">
          <mxGeometry x="526" y="460" width="80" height="30" as="geometry" />
        </mxCell>
        <mxCell id="MlSDF2G6X2Ml6JZiUadf-58" value="" style="edgeStyle=elbowEdgeStyle;elbow=vertical;" edge="1" source="MlSDF2G6X2Ml6JZiUadf-25" target="MlSDF2G6X2Ml6JZiUadf-57" parent="1">
          <mxGeometry relative="1" as="geometry" />
        </mxCell>
        <mxCell id="MlSDF2G6X2Ml6JZiUadf-59" value="C" style="rounded=1;" vertex="1" parent="1">
          <mxGeometry x="646" y="460" width="80" height="30" as="geometry" />
        </mxCell>
        <mxCell id="MlSDF2G6X2Ml6JZiUadf-60" value="" style="edgeStyle=elbowEdgeStyle;elbow=vertical;" edge="1" source="MlSDF2G6X2Ml6JZiUadf-27" target="MlSDF2G6X2Ml6JZiUadf-59" parent="1">
          <mxGeometry relative="1" as="geometry" />
        </mxCell>
        <mxCell id="MlSDF2G6X2Ml6JZiUadf-61" value="D" style="rounded=1;" vertex="1" parent="1">
          <mxGeometry x="886" y="460" width="80" height="30" as="geometry" />
        </mxCell>
        <mxCell id="MlSDF2G6X2Ml6JZiUadf-62" value="" style="edgeStyle=elbowEdgeStyle;elbow=vertical;" edge="1" source="MlSDF2G6X2Ml6JZiUadf-39" target="MlSDF2G6X2Ml6JZiUadf-61" parent="1">
          <mxGeometry relative="1" as="geometry" />
        </mxCell>
        <mxCell id="MlSDF2G6X2Ml6JZiUadf-63" value="E" style="rounded=1;" vertex="1" parent="1">
          <mxGeometry x="1006" y="460" width="80" height="30" as="geometry" />
        </mxCell>
        <mxCell id="MlSDF2G6X2Ml6JZiUadf-64" value="" style="edgeStyle=elbowEdgeStyle;elbow=vertical;" edge="1" source="MlSDF2G6X2Ml6JZiUadf-41" target="MlSDF2G6X2Ml6JZiUadf-63" parent="1">
          <mxGeometry relative="1" as="geometry" />
        </mxCell>
        <mxCell id="MlSDF2G6X2Ml6JZiUadf-65" value="A" style="rounded=1;" vertex="1" parent="1">
          <mxGeometry x="1126" y="460" width="80" height="30" as="geometry" />
        </mxCell>
        <mxCell id="MlSDF2G6X2Ml6JZiUadf-66" value="" style="edgeStyle=elbowEdgeStyle;elbow=vertical;" edge="1" source="MlSDF2G6X2Ml6JZiUadf-43" target="MlSDF2G6X2Ml6JZiUadf-65" parent="1">
          <mxGeometry relative="1" as="geometry" />
        </mxCell>
        <mxCell id="MlSDF2G6X2Ml6JZiUadf-67" value="D" style="rounded=1;" vertex="1" parent="1">
          <mxGeometry x="1246" y="460" width="80" height="30" as="geometry" />
        </mxCell>
        <mxCell id="MlSDF2G6X2Ml6JZiUadf-68" value="" style="edgeStyle=elbowEdgeStyle;elbow=vertical;" edge="1" source="MlSDF2G6X2Ml6JZiUadf-45" target="MlSDF2G6X2Ml6JZiUadf-67" parent="1">
          <mxGeometry relative="1" as="geometry" />
        </mxCell>
        <mxCell id="MlSDF2G6X2Ml6JZiUadf-69" value="A" style="rounded=1;" vertex="1" parent="1">
          <mxGeometry x="1366" y="460" width="80" height="30" as="geometry" />
        </mxCell>
        <mxCell id="MlSDF2G6X2Ml6JZiUadf-70" value="" style="edgeStyle=elbowEdgeStyle;elbow=vertical;" edge="1" source="MlSDF2G6X2Ml6JZiUadf-47" target="MlSDF2G6X2Ml6JZiUadf-69" parent="1">
          <mxGeometry relative="1" as="geometry" />
        </mxCell>
        <mxCell id="MlSDF2G6X2Ml6JZiUadf-82" value="" style="edgeStyle=orthogonalEdgeStyle;rounded=0;orthogonalLoop=1;jettySize=auto;html=1;" edge="1" parent="1" source="MlSDF2G6X2Ml6JZiUadf-71" target="MlSDF2G6X2Ml6JZiUadf-81">
          <mxGeometry relative="1" as="geometry" />
        </mxCell>
        <mxCell id="MlSDF2G6X2Ml6JZiUadf-87" value="" style="edgeStyle=orthogonalEdgeStyle;rounded=0;orthogonalLoop=1;jettySize=auto;html=1;" edge="1" parent="1" source="MlSDF2G6X2Ml6JZiUadf-71" target="MlSDF2G6X2Ml6JZiUadf-81">
          <mxGeometry relative="1" as="geometry" />
        </mxCell>
        <mxCell id="MlSDF2G6X2Ml6JZiUadf-88" value="" style="edgeStyle=orthogonalEdgeStyle;rounded=0;orthogonalLoop=1;jettySize=auto;html=1;" edge="1" parent="1" source="MlSDF2G6X2Ml6JZiUadf-71" target="MlSDF2G6X2Ml6JZiUadf-81">
          <mxGeometry relative="1" as="geometry" />
        </mxCell>
        <mxCell id="MlSDF2G6X2Ml6JZiUadf-71" value="E" style="rounded=1;" vertex="1" parent="1">
          <mxGeometry x="1474" y="300" width="80" height="30" as="geometry" />
        </mxCell>
        <mxCell id="MlSDF2G6X2Ml6JZiUadf-72" value="" style="edgeStyle=elbowEdgeStyle;elbow=vertical;" edge="1" source="MlSDF2G6X2Ml6JZiUadf-9" target="MlSDF2G6X2Ml6JZiUadf-71" parent="1">
          <mxGeometry relative="1" as="geometry" />
        </mxCell>
        <mxCell id="MlSDF2G6X2Ml6JZiUadf-73" value="A" style="rounded=1;" vertex="1" parent="1">
          <mxGeometry x="1594" y="300" width="80" height="30" as="geometry" />
        </mxCell>
        <mxCell id="MlSDF2G6X2Ml6JZiUadf-74" value="" style="edgeStyle=elbowEdgeStyle;elbow=vertical;" edge="1" source="MlSDF2G6X2Ml6JZiUadf-9" target="MlSDF2G6X2Ml6JZiUadf-73" parent="1">
          <mxGeometry relative="1" as="geometry" />
        </mxCell>
        <mxCell id="MlSDF2G6X2Ml6JZiUadf-75" value="C" style="rounded=1;" vertex="1" parent="1">
          <mxGeometry x="1714" y="300" width="80" height="30" as="geometry" />
        </mxCell>
        <mxCell id="MlSDF2G6X2Ml6JZiUadf-76" value="" style="edgeStyle=elbowEdgeStyle;elbow=vertical;" edge="1" source="MlSDF2G6X2Ml6JZiUadf-9" target="MlSDF2G6X2Ml6JZiUadf-75" parent="1">
          <mxGeometry relative="1" as="geometry" />
        </mxCell>
        <mxCell id="MlSDF2G6X2Ml6JZiUadf-81" value="A" style="rounded=1;" vertex="1" parent="1">
          <mxGeometry x="1474" y="380" width="80" height="30" as="geometry" />
        </mxCell>
      </root>
    </mxGraphModel>
  </diagram>
</mxfile>
